<?xml version="1.0" standalone="no"?>
<!DOCTYPE svg PUBLIC "-//W3C//DTD SVG 20010904//EN"
 "http://www.w3.org/TR/2001/REC-SVG-20010904/DTD/svg10.dtd">
<svg version="1.0" xmlns="http://www.w3.org/2000/svg"
 width="785.000000pt" height="805.000000pt" viewBox="0 0 785.000000 805.000000"
 preserveAspectRatio="xMidYMid meet">

<g transform="translate(0.000000,805.000000) scale(0.100000,-0.100000)"
fill="#000000" stroke="none">
<path d="M3303 7048 c-381 -381 -693 -697 -693 -703 0 -5 42 -51 92 -102 l93
-93 -93 -93 c-50 -51 -92 -97 -92 -102 0 -16 1384 -1395 1400 -1395 17 0 1390
1377 1390 1394 0 6 -40 52 -90 101 l-90 89 90 92 c50 50 90 98 90 105 0 16
-1379 1399 -1395 1399 -5 0 -321 -312 -702 -692z m1356 -1356 l-654 -651 -653
652 -652 652 652 652 653 653 654 -654 653 -653 -653 -651z"/>
<path d="M3517 6853 c-263 -263 -483 -486 -489 -497 -9 -16 53 -81 478 -507
269 -269 495 -489 503 -489 18 0 969 947 977 973 5 16 -91 117 -482 508 -269
269 -493 489 -499 489 -5 0 -225 -215 -488 -477z m736 -271 l237 -237 -243
-243 -242 -242 -240 240 -240 240 240 240 c132 132 242 240 245 240 3 0 112
-107 243 -238z"/>
<path d="M3922 6427 c-39 -40 -72 -79 -72 -88 0 -16 141 -159 157 -159 11 0
163 153 163 164 0 16 -143 156 -159 156 -9 0 -49 -33 -89 -73z"/>
<path d="M3673 4190 c-82 -17 -133 -56 -167 -129 -20 -44 -21 -60 -21 -406 0
-393 2 -408 58 -471 50 -58 100 -78 193 -78 71 0 86 3 135 31 44 25 59 41 84
88 l30 59 0 365 c0 352 -1 368 -21 412 -12 25 -32 56 -45 69 -53 50 -162 77
-246 60z m107 -153 c44 -22 49 -59 49 -390 1 -327 -3 -363 -47 -386 -35 -19
-81 -13 -107 14 l-25 24 0 346 c0 226 4 353 11 366 19 36 75 48 119 26z"/>
<path d="M4519 4190 c-94 -16 -148 -64 -174 -155 -14 -46 -16 -110 -13 -412 3
-344 4 -360 25 -398 45 -85 109 -119 223 -118 88 0 141 22 188 78 46 56 52 93
52 319 l0 206 -110 0 -110 0 0 -75 0 -75 35 0 35 0 0 -126 c0 -125 0 -126 -29
-155 -37 -36 -79 -38 -118 -5 l-28 24 0 352 0 352 28 24 c39 33 81 31 118 -5
27 -28 29 -34 29 -110 l0 -81 75 0 75 0 0 89 c0 101 -17 161 -58 205 -52 55
-150 82 -243 66z"/>
<path d="M1150 3650 l0 -530 80 0 80 0 0 215 0 215 56 0 c109 0 124 -28 124
-237 0 -205 -6 -193 97 -193 65 0 82 3 76 13 -4 6 -10 95 -13 197 -5 165 -8
190 -28 227 -12 23 -35 49 -50 59 l-29 17 43 42 c54 54 68 112 62 256 -3 80
-9 113 -25 144 -47 90 -91 105 -309 105 l-164 0 0 -530z m284 376 c43 -18 56
-55 56 -156 0 -133 -28 -170 -130 -170 l-50 0 0 163 c0 90 3 167 7 170 11 12
82 8 117 -7z"/>
<path d="M1770 3650 l0 -530 225 0 225 0 0 70 0 70 -145 0 -145 0 0 160 0 160
115 0 115 0 0 75 0 75 -115 0 -116 0 3 153 3 152 143 3 142 3 0 69 0 70 -225
0 -225 0 0 -530z"/>
<path d="M2280 4110 l0 -70 90 0 90 0 0 -460 0 -460 80 0 80 0 2 458 3 457 88
3 87 3 0 69 0 70 -260 0 -260 0 0 -70z"/>
<path d="M2880 3650 l0 -530 80 0 80 0 0 215 0 215 58 0 c104 0 122 -38 122
-257 0 -78 3 -148 6 -157 5 -13 22 -16 83 -16 l76 0 -3 162 c-4 223 -13 262
-69 316 -25 24 -43 44 -41 46 1 1 16 10 31 20 16 10 39 39 50 64 19 40 22 65
22 172 0 114 -2 130 -25 175 -21 41 -36 55 -80 78 -52 26 -58 27 -222 27
l-168 0 0 -530z m272 380 c53 -15 63 -39 63 -156 0 -145 -21 -174 -125 -174
l-50 0 0 163 c0 90 3 167 7 170 10 10 63 8 105 -3z"/>
<path d="M5065 4168 c-5 -16 -165 -1020 -165 -1037 0 -8 22 -11 73 -9 l72 3
14 93 13 92 108 0 107 0 13 -95 13 -95 82 0 c80 0 82 1 78 23 -14 81 -163
1022 -163 1028 0 15 -240 11 -245 -3z m159 -446 c20 -134 36 -250 36 -258 0
-11 -18 -14 -83 -14 l-84 0 38 258 c21 141 39 264 39 272 1 13 2 13 9 0 5 -8
25 -124 45 -258z"/>
<path d="M5560 3650 l0 -530 70 0 70 0 1 348 c0 191 4 356 8 366 5 12 21 -68
45 -215 21 -129 47 -294 59 -366 l21 -133 78 0 c43 0 78 2 78 5 0 12 101 676
109 715 6 30 9 -79 10 -337 l1 -383 75 0 75 0 0 530 0 531 -112 -3 -113 -3
-52 -350 c-52 -351 -61 -401 -68 -394 -2 2 -29 162 -60 354 -30 193 -58 360
-60 373 -5 21 -9 22 -120 22 l-115 0 0 -530z"/>
<path d="M6390 3650 l0 -530 230 0 230 0 0 70 0 70 -145 0 -145 0 0 160 0 160
115 0 115 0 0 75 0 75 -115 0 -115 0 0 155 0 155 145 0 145 0 0 70 0 70 -230
0 -230 0 0 -530z"/>
<path d="M1281 2864 c-63 -32 -105 -90 -121 -170 -8 -36 -10 -175 -8 -411 3
-392 5 -402 66 -466 51 -55 98 -71 197 -72 78 0 96 3 134 25 95 54 131 138
131 308 l0 92 -80 0 -80 0 0 -77 c-1 -151 -26 -196 -108 -191 -36 2 -49 9 -66
31 -20 27 -21 41 -24 362 -3 370 1 405 48 430 34 18 60 19 93 4 37 -17 49 -47
55 -136 l5 -83 78 0 79 0 0 57 c0 222 -83 323 -265 323 -68 0 -90 -4 -134 -26z"/>
<path d="M1914 2866 c-59 -28 -100 -75 -120 -142 -21 -72 -20 -739 1 -812 19
-62 62 -115 119 -145 59 -31 203 -31 262 0 57 30 101 78 119 131 22 67 22 768
0 833 -39 108 -118 159 -250 159 -63 0 -91 -5 -131 -24z m204 -161 c22 -26 22
-27 22 -381 0 -393 -2 -409 -60 -421 -36 -7 -34 -7 -71 1 -56 11 -59 34 -59
418 0 255 4 349 13 368 28 55 112 63 155 15z"/>
<path d="M4253 2866 c-63 -30 -107 -87 -123 -159 -8 -35 -11 -171 -8 -422 l3
-370 28 -50 c37 -67 92 -104 173 -118 123 -21 233 23 284 113 22 41 25 58 28
178 l4 132 -81 0 -81 0 0 -110 c0 -104 -1 -112 -25 -135 -35 -36 -102 -35
-136 1 l-24 26 0 369 c0 361 0 369 21 389 12 12 40 24 62 27 36 5 45 2 72 -25
29 -29 30 -34 30 -116 l0 -86 81 0 81 0 -4 108 c-3 84 -8 116 -25 147 -47 88
-115 125 -232 125 -59 0 -87 -6 -128 -24z"/>
<path d="M5785 2874 c-53 -20 -111 -78 -132 -133 -16 -41 -18 -87 -18 -426 l0
-380 30 -60 c53 -106 156 -151 292 -128 91 16 139 51 178 128 l30 60 0 370 c0
285 -3 381 -14 418 -19 65 -79 131 -138 151 -58 20 -174 20 -228 0z m158 -145
c50 -23 52 -36 52 -415 0 -341 -1 -353 -21 -380 -38 -51 -110 -51 -148 0 -20
26 -21 42 -24 361 -2 218 1 348 8 374 16 60 75 87 133 60z"/>
<path d="M2440 2315 l0 -565 230 0 230 0 0 80 0 80 -145 0 -145 0 0 485 0 485
-85 0 -85 0 0 -565z"/>
<path d="M2990 2315 l0 -565 230 0 230 0 0 80 0 80 -145 0 -145 0 0 485 0 485
-85 0 -85 0 0 -565z"/>
<path d="M3540 2315 l0 -565 240 0 240 0 0 80 0 80 -155 0 -155 0 0 170 0 170
120 0 120 0 0 75 0 75 -120 0 -120 0 0 165 0 165 155 0 155 0 0 75 0 75 -240
0 -240 0 0 -565z"/>
<path d="M4710 2805 l0 -74 93 -3 92 -3 3 -487 2 -488 85 0 85 0 0 490 0 490
90 0 90 0 0 75 0 75 -270 0 -270 0 0 -75z"/>
<path d="M5340 2315 l0 -565 85 0 85 0 0 565 0 565 -85 0 -85 0 0 -565z"/>
<path d="M6290 2315 l0 -565 75 0 75 0 0 413 c1 271 4 406 10 395 8 -13 110
-386 211 -770 l10 -38 89 0 90 0 0 565 0 565 -75 0 -75 0 0 -329 c0 -182 -4
-332 -8 -335 -5 -3 -49 145 -97 329 l-88 335 -109 0 -108 0 0 -565z"/>
<path d="M3404 1319 c-16 -5 -41 -20 -55 -35 -24 -25 -24 -27 -27 -254 -3
-253 1 -275 58 -305 59 -31 127 -8 155 52 13 28 16 70 13 258 l-3 225 -25 25
c-32 31 -76 44 -116 34z m55 -83 c8 -9 11 -78 9 -227 l-3 -214 -30 0 -30 0 -3
214 c-2 214 1 241 33 241 7 0 18 -6 24 -14z"/>
<path d="M4031 1309 c-12 -11 -26 -32 -32 -46 -5 -13 -9 -125 -9 -249 0 -254
5 -274 67 -300 50 -22 106 -10 138 28 25 29 25 32 25 204 l0 174 -60 0 -60 0
0 -40 c0 -34 3 -40 20 -40 20 0 20 -5 18 -127 l-3 -128 -30 0 -30 0 -3 226
c-2 189 0 228 12 238 25 21 56 4 56 -30 0 -27 2 -29 40 -29 l40 0 0 41 c0 31
-6 47 -29 70 -25 25 -37 29 -83 29 -41 0 -60 -5 -77 -21z"/>
<path d="M5620 1020 l0 -310 35 0 35 0 1 203 c0 111 4 211 8 221 5 12 16 -40
30 -140 12 -87 27 -187 32 -221 l11 -63 57 0 58 0 6 167 c4 91 7 231 7 310 l0
143 -40 0 -40 0 -1 -227 c0 -127 -4 -219 -9 -208 -4 11 -20 113 -36 228 l-28
207 -63 0 -63 0 0 -310z"/>
<path d="M6089 1301 l-29 -29 0 -249 c0 -276 1 -282 67 -309 61 -26 131 2 154
63 5 13 9 96 9 184 l0 159 -65 0 -65 0 0 -40 c0 -36 2 -40 25 -40 l26 0 -3
-127 -3 -128 -26 -3 c-47 -5 -50 9 -47 243 3 195 5 219 21 229 24 15 51 -3 55
-38 3 -23 7 -26 44 -26 l41 0 -6 43 c-8 62 -51 97 -118 97 -43 0 -55 -5 -80
-29z"/>
<path d="M1730 1015 l0 -305 40 0 40 0 0 66 c0 82 16 82 46 -2 21 -58 22 -59
63 -62 22 -2 41 -1 41 1 0 3 -11 35 -25 72 l-26 68 23 24 c22 23 23 33 26 190
5 236 -5 253 -145 253 l-83 0 0 -305z m148 71 c3 -169 1 -176 -45 -176 -23 0
-23 0 -23 171 l0 170 33 -3 32 -3 3 -159z"/>
<path d="M2120 1015 l0 -305 100 0 100 0 0 40 0 40 -60 0 -60 0 0 125 0 125
60 0 60 0 0 35 0 35 -60 0 -60 0 0 70 0 70 60 0 60 0 0 35 0 35 -100 0 -100 0
0 -305z"/>
<path d="M2480 1285 l0 -35 55 0 55 0 0 -270 0 -270 40 0 40 0 0 270 0 270 50
0 50 0 0 35 0 35 -145 0 -145 0 0 -35z"/>
<path d="M2930 1015 l0 -305 40 0 40 0 0 66 c0 82 15 81 44 -1 21 -60 21 -60
64 -63 l42 -3 -26 71 -27 71 24 25 c22 24 24 35 27 165 5 173 -1 219 -35 253
-24 24 -33 26 -109 26 l-84 0 0 -305z m134 229 c14 -5 16 -29 16 -160 0 -141
-2 -154 -19 -164 -50 -26 -51 -22 -51 160 0 161 1 170 19 170 11 0 26 -3 35
-6z"/>
<path d="M4470 1317 c0 -2 -20 -135 -45 -297 -25 -162 -45 -298 -45 -302 0 -4
17 -8 38 -8 l38 0 14 108 15 107 45 0 45 0 13 -85 c21 -136 18 -130 57 -130
22 0 35 5 35 13 0 7 -22 141 -50 297 -27 157 -50 288 -50 293 0 4 -25 7 -55 7
-30 0 -55 -1 -55 -3z m79 -204 c17 -109 16 -113 -20 -113 l-32 0 7 68 c17 164
25 173 45 45z"/>
<path d="M4830 1015 l0 -305 40 0 40 0 1 238 c0 130 2 233 4 227 3 -5 18 -100
35 -210 43 -282 35 -257 78 -253 l36 3 32 205 c18 113 33 212 34 220 0 13 1
13 10 0 5 -8 10 -106 10 -222 l0 -208 35 0 35 0 0 305 0 305 -69 0 -68 0 -22
-142 c-25 -162 -30 -192 -36 -186 -2 2 -14 67 -25 143 -31 207 -19 185 -100
185 l-70 0 0 -305z"/>
<path d="M5380 1015 l0 -305 40 0 40 0 0 305 0 305 -40 0 -40 0 0 -305z"/>
</g>
</svg>
