<?xml version="1.0" encoding="iso-8859-1"?>
<!-- Uploaded to: SVG Repo, www.svgrepo.com, Generator: SVG Repo Mixer Tools -->
<svg height="800px" width="800px" version="1.1" id="Layer_1" xmlns="http://www.w3.org/2000/svg" xmlns:xlink="http://www.w3.org/1999/xlink" 
	 viewBox="0 0 496 496" xml:space="preserve">
<circle style="fill:#00BBF4;" cx="248" cy="248" r="248"/>
<path style="fill:#00A6F9;" d="M72.8,72.8c96.8-96.8,253.6-96.8,350.4,0s96.8,253.6,0,350.4s-253.6,96.8-350.4,0"/>
<path style="fill:#0064DB;" d="M393.6,448.8c-4.8,1.6-9.6,1.6-14.4-0.8c-22.4-11.2-100.8-72-131.2-69.6
	c-30.4-2.4-108.8,58.4-131.2,70.4c-4.8,2.4-9.6,2.4-14.4,0.8c18.4,12.8,37.6,23.2,58.4,31.2c30.4-7.2,61.6-20,87.2-20.8
	c25.6,0.8,56.8,13.6,87.2,20.8C356,472.8,375.2,462.4,393.6,448.8z"/>
<path style="fill:#0086F4;" d="M72.8,72.8c96.8-96.8,253.6-96.8,350.4,0s96.8,253.6,0,350.4"/>
<path style="fill:#0064DB;" d="M423.2,72.8c96.8,96.8,96.8,253.6,0,350.4"/>
<path style="fill:#F9F9F9;" d="M411.2,279.2c-0.8-1.6-1.6-3.2-2.4-5.6h0.8c0.8,0,1.6-0.8,1.6-1.6v-4.8c0-0.8-0.8-1.6-1.6-1.6
	l-2.4-1.6c-0.8-6.4-1.6-12.8-1.6-19.2l1.6-0.8c0.8,0,1.6-0.8,1.6-1.6v-8.8c0-0.8-2.4-2.4-4-3.2c0-2.4,0-4.8-0.8-5.6
	c-2.4-8-12-11.2-12-11.2l-142.4-34.4v-0.8l-1.6,0l-1.6-0.8v0.8L104,212.8c0,0-9.6,3.2-12,11.2c0,1.6-0.8,3.2-0.8,5.6
	c-1.6,0.8-4,3.2-4,3.2v8.8c0,0.8,0.8,1.6,1.6,1.6l1.6,0.8c0,6.4-0.8,12.8-1.6,19.2l-2.4,1.6c-0.8,0-1.6,0.8-1.6,1.6v5.6
	c0,0.8,0.8,1.6,1.6,1.6h0.8c-0.8,2.4-1.6,4-2.4,5.6c-8,15.2-26.4,53.6-20,83.2s41.6,95.2,77.6,92.8c35.2-2.4,74.4-21.6,105.6-23.2
	c31.2,1.6,70.4,20.8,105.6,23.2c36,2.4,71.2-63.2,77.6-92.8C437.6,332.8,419.2,294.4,411.2,279.2z"/>
<path style="fill:#E7F2F2;" d="M408.8,273.6L408.8,273.6c1.6,0,2.4-0.8,2.4-1.6v-4.8c0-0.8-0.8-1.6-1.6-1.6l-2.4-1.6
	c-0.8-6.4-1.6-12.8-1.6-19.2l1.6-0.8c0.8,0,1.6-0.8,1.6-1.6v-8.8c0-0.8-2.4-2.4-4-3.2c0-2.4,0-4.8-0.8-5.6c-2.4-8-12-11.2-12-11.2
	l-142.4-34.4v-0.8l-1.6,0l0,0v254.4l0,0c31.2,1.6,70.4,20.8,105.6,23.2c36,2.4,71.2-63.2,77.6-92.8c6.4-30.4-12-68-20-83.2
	C410.4,277.6,409.6,276,408.8,273.6z"/>
<path style="fill:#1C1C1B;" d="M381.6,279.2l-12.8-24L298.4,224L248,278.4l-49.6-53.6L128,256l-12.8,24l-4.8,30.4
	c0,0,36,47.2,42.4,52c8,6.4,8,12.8,36-12.8c24.8-22.4,44.8-36,57.6-37.6l0,0c0.8,0,1.6,0,2.4,0s1.6,0,2.4,0l0,0
	c12.8,1.6,32.8,15.2,57.6,37.6c28,25.6,28,19.2,36,12.8c6.4-4.8,42.4-52,42.4-52L381.6,279.2z"/>
<path style="fill:#F9F9F9;" d="M406.4,144.8l-4-14.4c0-0.8-0.8-1.6-2.4-0.8l-2.4-0.8c-3.2-10.4-5.6-16.8-5.6-16.8
	c-12.8-25.6-30.4-44-48-56.8l-1.6-4c0-0.8,0-1.6-0.8-2.4l-16.8-8c-0.8,0-1.6,0-2.4,0.8l-1.6,0.8C287.2,24.8,254.4,24,248,24
	s-39.2,0-74.4,16.8L172,40c0,0-0.8,0-1.6,0l-16.8,8c-0.8,0-0.8,1.6-0.8,2.4l-1.6,4c-18.4,12.8-35.2,31.2-48,56.8
	c0,0-2.4,7.2-5.6,16.8l-2.4,0.8c-0.8,0-1.6,0-2.4,0.8l-4,14.4c0,0.8,0,1.6,0.8,2.4l1.6,3.2c-2.4,12-3.2,25.6-1.6,36.8
	c5.6,29.6,44-7.2,44-7.2l95.2-4.8l17.6-3.2l17.6,3.2l95.2,4.8c0,0,38.4,36.8,44,7.2c2.4-11.2,0.8-24-0.8-36.8l1.6-3.2
	C406.4,146.4,407.2,145.6,406.4,144.8z"/>
<path style="fill:#E7F2F2;" d="M402.4,130.4c0-0.8-0.8-1.6-2.4-0.8l-2.4-0.8c-3.2-10.4-5.6-16.8-5.6-16.8
	c-12.8-25.6-30.4-44-48-56.8l-1.6-4c0-0.8,0-1.6-0.8-2.4l-16.8-8c-0.8,0-1.6,0-2.4,0.8l-1.6,0.8C287.2,24.8,254.4,24,248,24l0,0
	v146.4l0,0l17.6,3.2l95.2,4.8c0,0,38.4,36.8,44,7.2c2.4-11.2,0.8-24-0.8-36.8l1.6-3.2c0.8,0,1.6-0.8,0.8-2.4L402.4,130.4z"/>
<path style="fill:#CDE0DF;" d="M432.8,348c-1.6,4.8-5.6,14.4-9.6,22.4c-7.2,13.6-35.2,64-56,52c-20-11.2-90.4-65.6-118.4-63.2
	c-28-2.4-98.4,52.8-118.4,63.2c-21.6,11.2-49.6-38.4-56-52c-4-8-8-17.6-9.6-22.4c0,4.8,0,10.4,1.6,15.2
	c6.4,30.4,41.6,95.2,77.6,92.8c35.2-2.4,74.4-21.6,105.6-23.2c31.2,1.6,70.4,20.8,105.6,23.2c36,2.4,71.2-63.2,77.6-92.8
	C432,358.4,432.8,352.8,432.8,348z"/>
<path style="fill:#BAD1CF;" d="M422.4,370.4c-7.2,13.6-35.2,64-56,52c-20-11.2-90.4-65.6-118.4-63.2l0,0v73.6l0,0
	c31.2,1.6,70.4,20.8,105.6,23.2c36,2.4,71.2-63.2,77.6-92.8c0.8-4.8,1.6-9.6,1.6-15.2C431.2,352.8,426.4,362.4,422.4,370.4z"/>
<path style="fill:#DDEDED;" d="M111.2,211.2c4,8.8,9.6,20.8,9.6,23.2c0.8,4,0,5.6-4.8,11.2s-15.2,16-15.2,16s-3.2,4-2.4,8
	c0.8,3.2,5.6,24.8,5.6,24.8s4,7.2,5.6,7.2s6.4-4,10.4-9.6s3.2-25.6,8-33.6c4-8,8-8.8,22.4-13.6s26.4-12,40.8-28
	c15.2-16,32.8-31.2,55.2-33.6v-2.4L111.2,211.2z"/>
<g>
	<path style="fill:#CDE0DF;" d="M384.8,211.2c-4,8.8-9.6,20.8-9.6,23.2c-0.8,4,0,5.6,4.8,11.2s15.2,16,15.2,16s3.2,4,2.4,8
		c-0.8,3.2-5.6,24.8-5.6,24.8s-4,7.2-5.6,7.2s-6.4-4-10.4-9.6s-3.2-25.6-8-33.6c-4-8-8-8.8-21.6-13.6c-14.4-5.6-26.4-12-40.8-28
		c-15.2-16-32.8-31.2-55.2-33.6v-2.4L384.8,211.2z"/>
	<path style="fill:#CDE0DF;" d="M311.2,158.4c-22.4-2.4-44-6.4-63.2-5.6c-19.2-0.8-40.8,2.4-63.2,5.6c-38.4,4.8-72,13.6-94.4,24.8
		c0,0.8,0,1.6,0.8,2.4c5.6,29.6,44-7.2,44-7.2l95.2-4.8l17.6-3.2l17.6,3.2l95.2,4.8c0,0,38.4,36.8,44,7.2c0-0.8,0-1.6,0.8-2.4
		C383.2,172,349.6,162.4,311.2,158.4z"/>
</g>
<path style="fill:#BAD1CF;" d="M248,152.8L248,152.8v17.6l0,0l17.6,3.2l95.2,4.8c0,0,38.4,36.8,44,7.2c0-0.8,0-1.6,0.8-2.4
	c-22.4-11.2-56-20.8-94.4-24.8C288.8,155.2,267.2,151.2,248,152.8z"/>
<path style="fill:#7C7C7C;" d="M248,166.4c-9.6,0-111.2-1.6-156,22.4c0,0,0.8,15.2,4,15.2s140.8-12.8,152-13.6
	c11.2,0.8,148,13.6,152,13.6s4-15.2,4-15.2C359.2,164.8,257.6,166.4,248,166.4z"/>
<path style="fill:#666663;" d="M248,166.4L248,166.4v24l0,0c11.2,0.8,148,13.6,152,13.6s4-15.2,4-15.2
	C359.2,164.8,257.6,166.4,248,166.4z"/>
<path style="fill:#DDEDED;" d="M80.8,384c-3.2-4.8-5.6-8.8-7.2-12c-2.4-4-4-8-5.6-12.8c-0.8,16,31.2,59.2,33.6,61.6
	c2.4,1.6,7.2,0,10.4-0.8C100,413.6,88.8,396.8,80.8,384z"/>
<path style="fill:#1C1C1B;" d="M73.6,370.4c-2.4-4-4-8-5.6-12.8c-0.8,16,31.2,59.2,33.6,61.6s5.6,0.8,9.6,0
	C93.6,408,78.4,380,73.6,370.4z"/>
<g>
	<path style="fill:#DDEDED;" d="M108,356.8l-2.4-3.2c0,0,8.8-4.8,14.4-5.6v4c0,0-4,0.8-6.4,1.6C110.4,355.2,108,356.8,108,356.8z"/>
	<path style="fill:#DDEDED;" d="M103.2,350.4l-2.4-3.2c0,0,8.8-4.8,14.4-5.6l-0.8,3.2c0,0-3.2,0.8-6.4,1.6
		C105.6,348.8,103.2,350.4,103.2,350.4z"/>
	<path style="fill:#DDEDED;" d="M98.4,344l-2.4-3.2c0,0,8.8-4.8,14.4-5.6l-0.8,3.2c0,0-4,0.8-6.4,1.6C100.8,342.4,98.4,344,98.4,344
		z"/>
	<path style="fill:#DDEDED;" d="M93.6,337.6l-2.4-3.2c0,0,8.8-4.8,14.4-5.6l-0.8,3.2c0,0-3.2,0.8-6.4,1.6
		C96,336,93.6,337.6,93.6,337.6z"/>
	<path style="fill:#DDEDED;" d="M88.8,330.4l-2.4-2.4c0,0,8.8-4.8,14.4-5.6l-0.8,3.2c0,0-4,0.8-6.4,1.6
		C91.2,329.6,88.8,330.4,88.8,330.4z"/>
	<path style="fill:#DDEDED;" d="M84,324l-2.4-3.2c0,0,8.8-4.8,14.4-5.6v3.2c0,0-4,0.8-6.4,1.6C86.4,322.4,84,324,84,324z"/>
	<path style="fill:#DDEDED;" d="M79.2,317.6l-2.4-3.2c0,0,8.8-4.8,14.4-5.6l-0.8,3.2c0,0-3.2,0.8-6.4,1.6
		C81.6,316,79.2,317.6,79.2,317.6z"/>
</g>
<path style="fill:#494948;" d="M376.8,258.4c-4.8-5.6-5.6-7.2-4.8-11.2c0.8-4,10.4-24.8,13.6-30.4c3.2-5.6,8.8-3.2,8.8-3.2
	c-0.8-6.4,1.6-9.6,1.6-9.6l-4-3.2c-35.2-18.4-136-19.2-144-19.2l0,0l0,0l0,0l0,0c-8,0-108.8,0.8-143.2,19.2l-4,3.2
	c0,0,3.2,3.2,1.6,9.6c0,0,5.6-2.4,8.8,3.2c3.2,5.6,12.8,26.4,13.6,30.4c0.8,4,0,5.6-4.8,11.2s-15.2,16-15.2,16s-3.2,4-2.4,7.2
	c0.8,3.2,5.6,24.8,5.6,24.8s4,7.2,5.6,7.2s6.4-4,10.4-9.6s3.2-25.6,8-33.6c4-8,8-8.8,22.4-13.6c14.4-5.6,26.4-12,40.8-28
	c14.4-16,32-30.4,54.4-33.6c22.4,3.2,40,17.6,54.4,33.6c15.2,16,26.4,23.2,40.8,28c14.4,5.6,17.6,6.4,22.4,13.6c4,8,4,28,7.2,33.6
	c4,5.6,8.8,9.6,10.4,9.6s5.6-7.2,5.6-7.2s4.8-20.8,5.6-24.8c0.8-3.2-2.4-7.2-2.4-7.2S382.4,264,376.8,258.4z"/>
<path style="fill:#383836;" d="M392,200.8c-35.2-18.4-136-19.2-144-19.2l0,0l0,0l0,0v12.8l0,0c22.4,3.2,40,17.6,54.4,33.6
	c15.2,16,26.4,23.2,40.8,28c14.4,5.6,17.6,6.4,22.4,13.6c4,8,4,28,7.2,33.6c4,5.6,8.8,9.6,10.4,9.6s5.6-7.2,5.6-7.2
	s4.8-20.8,5.6-24.8c0.8-3.2-2.4-7.2-2.4-7.2s-10.4-10.4-15.2-16c-4.8-5.6-5.6-7.2-4.8-11.2c0.8-4,10.4-24.8,13.6-30.4
	c3.2-5.6,8.8-3.2,8.8-3.2c-0.8-6.4,1.6-9.6,1.6-9.6L392,200.8z"/>
<path style="fill:#5E5E5E;" d="M101.6,206.4c1.6,0,3.2,1.6,4,4c0,0.8,0.8,1.6,1.6,3.2c0.8,0.8,2.4,1.6,3.2,3.2
	c3.2,5.6,12.8,26.4,13.6,30.4s0,5.6-4.8,11.2s-15.2,16-15.2,16s-3.2,4-2.4,7.2c0.8,3.2,5.6,24.8,5.6,24.8l0,0h0.8
	c1.6,0,6.4-4,10.4-9.6c4-5.6,3.2-22.4,8-30.4c4-8,12.8-6.4,27.2-12s24.8-12,40-27.2c15.2-16,28.8-36.8,51.2-40"/>
<path style="fill:#6B6B6B;" d="M112,280.8c-0.8,1.6-2.4,4.8-4,4s-1.6-4-0.8-5.6c0.8-1.6,2.4-3.2,4-2.4
	C112,276.8,112.8,279.2,112,280.8z"/>
<ellipse transform="matrix(0.3306 -0.9438 0.9438 0.3306 -190.9995 290.9191)" style="fill:#1C1C1B;" cx="109.578" cy="280.101" rx="4" ry="2.4"/>
<path style="fill:#6B6B6B;" d="M116.8,273.6c-0.8,1.6-1.6,3.2-2.4,2.4c-0.8,0-1.6-2.4-0.8-4c0.8-1.6,1.6-2.4,2.4-1.6
	C116.8,271.2,116.8,272.8,116.8,273.6z"/>
<ellipse transform="matrix(0.3343 -0.9425 0.9425 0.3343 -181.6644 289.8158)" style="fill:#1C1C1B;" cx="114.319" cy="273.502" rx="2.4" ry="1.6"/>
<path style="fill:#E7F2F2;" d="M415.2,384c3.2-4.8,5.6-8.8,7.2-12c2.4-4,4-8,5.6-12.8c0.8,16-31.2,59.2-33.6,61.6
	c-2.4,1.6-7.2,0-10.4-0.8C396,413.6,407.2,396.8,415.2,384z"/>
<path style="fill:#1C1C1B;" d="M422.4,370.4c2.4-4,4-8,5.6-12.8c0.8,16-31.2,59.2-33.6,61.6s-5.6,0.8-9.6,0
	C402.4,408,417.6,380,422.4,370.4z"/>
<g>
	<path style="fill:#CDE0DF;" d="M388,356.8l2.4-3.2c0,0-8.8-4.8-14.4-5.6v3.2c0,0,4,0.8,6.4,1.6C385.6,355.2,388,356.8,388,356.8z"
		/>
	<path style="fill:#CDE0DF;" d="M392.8,350.4l2.4-3.2c0,0-8.8-4.8-14.4-5.6l0.8,3.2c0,0,3.2,0.8,6.4,1.6
		C390.4,348.8,392.8,350.4,392.8,350.4z"/>
	<path style="fill:#CDE0DF;" d="M397.6,344l2.4-3.2c0,0-8.8-4.8-14.4-5.6l0.8,3.2c0,0,4,0.8,6.4,1.6
		C395.2,342.4,397.6,344,397.6,344z"/>
	<path style="fill:#CDE0DF;" d="M402.4,337.6l2.4-3.2c0,0-8.8-4.8-14.4-5.6l0.8,3.2c0,0,3.2,0.8,6.4,1.6S402.4,337.6,402.4,337.6z"
		/>
	<path style="fill:#CDE0DF;" d="M407.2,330.4l2.4-3.2c0,0-8.8-4.8-14.4-5.6l0.8,3.2c0,0,4,0.8,6.4,1.6
		C404.8,329.6,407.2,330.4,407.2,330.4z"/>
	<path style="fill:#CDE0DF;" d="M412,324l2.4-3.2c0,0-8.8-4.8-14.4-5.6l0.8,3.2c0,0,3.2,0.8,6.4,1.6C409.6,322.4,412,324,412,324z"
		/>
	<path style="fill:#CDE0DF;" d="M416.8,317.6l2.4-3.2c0,0-8.8-4.8-14.4-5.6l0.8,3.2c0,0,4,0.8,6.4,1.6
		C414.4,316,416.8,317.6,416.8,317.6z"/>
</g>
<path style="fill:#5E5E5E;" d="M248,166.4c-9.6,0-111.2-1.6-156,22.4c0,0,0,2.4,0,4.8c44-24,142.4-22.4,155.2-22.4l0,0
	c0,0,0,0,0.8,0c0.8,0,0.8,0,0.8,0l0,0c12.8,0,111.2-0.8,155.2,22.4c0-2.4,0-4.8,0-4.8C359.2,164.8,257.6,166.4,248,166.4z"/>
<path style="fill:#494947;" d="M248,166.4L248,166.4v4.8l0,0c0.8,0,0.8,0,0.8,0l0,0c12.8,0,111.2-0.8,155.2,22.4c0-2.4,0-4.8,0-4.8
	C359.2,164.8,257.6,166.4,248,166.4z"/>
<path style="fill:#494948;" d="M394.4,206.4c-1.6,0-3.2,1.6-4,4c0,0.8-0.8,1.6-1.6,3.2c-1.6,0.8-2.4,1.6-3.2,3.2
	c-3.2,5.6-12.8,26.4-13.6,30.4c-0.8,4,0,5.6,4.8,11.2s15.2,16,15.2,16s3.2,4,2.4,7.2c-0.8,3.2-5.6,24.8-5.6,24.8l0,0H388
	c-1.6,0-6.4-4-10.4-9.6s-3.2-22.4-8-30.4c-4-8-12.8-6.4-27.2-12c-14.4-5.6-24.8-12-40-27.2c-15.2-16-28.8-36.8-51.2-40"/>
<path style="fill:#383836;" d="M377.6,199.2c-1.6,1.6-3.2,0-3.2,0C311.2,182.4,252,184.8,248,185.6c-4,0-63.2-2.4-126.4,13.6
	c0,0-2.4,1.6-3.2,0c-1.6-1.6-8,1.6-8,1.6s1.6,17.6,8.8,32.8c7.2,15.2,14.4,18.4,30.4,16c18.4-2.4,32-16.8,48-30.4
	c15.2-13.6,29.6-24,50.4-24s35.2,10.4,50.4,24c16,13.6,28.8,28,48,30.4c16,2.4,22.4-0.8,30.4-16c7.2-15.2,8.8-32.8,8.8-32.8
	S379.2,197.6,377.6,199.2z"/>
<path style="fill:#262624;" d="M377.6,199.2c-1.6,1.6-3.2,0-3.2,0C311.2,182.4,252,184.8,248,185.6l0,0v8.8l0,0
	c20.8,0,35.2,10.4,50.4,24c16,13.6,28.8,28,48,30.4c16,2.4,22.4-0.8,30.4-16c7.2-15.2,8.8-32.8,8.8-32.8S379.2,197.6,377.6,199.2z"
	/>
<path style="fill:#1C1C1B;" d="M377.6,199.2c-1.6,1.6-3.2,0-3.2,0C311.2,182.4,252,184.8,248,185.6c-4,0-63.2-2.4-126.4,13.6
	c0,0-2.4,1.6-3.2,0c0,0,0,0-0.8,0c0.8,5.6,3.2,18.4,8.8,29.6c7.2,15.2,14.4,18.4,30.4,16c6.4-0.8,12.8-3.2,18.4-6.4
	c7.2-5.6,14.4-12.8,22.4-19.2c6.4-5.6,13.6-11.2,20-15.2c9.6-6.4,18.4-11.2,30.4-12.8c11.2,1.6,20.8,6.4,30.4,12.8
	c7.2,4,13.6,9.6,20,15.2c8,7.2,15.2,13.6,22.4,19.2c5.6,3.2,11.2,5.6,18.4,6.4c16,2.4,22.4-0.8,30.4-16
	C375.2,216.8,377.6,204.8,377.6,199.2C378.4,199.2,378.4,199.2,377.6,199.2z"/>
<path d="M374.4,199.2C311.2,182.4,252,184.8,248,185.6l0,0v4.8l0,0c12,1.6,20.8,6.4,30.4,12.8c7.2,4,13.6,9.6,20,15.2
	c8,7.2,15.2,13.6,22.4,19.2c5.6,3.2,11.2,5.6,18.4,6.4c16,2.4,22.4-0.8,30.4-16c5.6-11.2,8-24,8.8-29.6c0,0,0,0-0.8,0
	C376.8,200.8,374.4,199.2,374.4,199.2z"/>
<path style="fill:#CDE0DF;" d="M360,270.4c-0.8-6.4-5.6-8-5.6-8l-10.4-4.8c-24.8-9.6-40.8-29.6-40.8-29.6
	c-30.4-31.2-50.4-32.8-54.4-32.8c-4.8,0-24.8,1.6-54.4,32.8c0,0-16.8,20-40.8,29.6l-10.4,4.8c0,0-4.8,1.6-5.6,8s-7.2,26.4,0,36.8
	s24,32,28,35.2c4.8,4.8,11.2,6.4,22.4-6.4c10.4-12,44-48.8,61.6-49.6c17.6,0.8,51.2,37.6,61.6,49.6c11.2,12.8,17.6,10.4,22.4,6.4
	c4-3.2,20.8-25.6,28-35.2C367.2,296.8,360.8,276.8,360,270.4z"/>
<path style="fill:#BAD1CF;" d="M354.4,262.4l-10.4-4.8c-24.8-9.6-40.8-29.6-40.8-29.6c-30.4-31.2-50.4-32.8-54.4-32.8l0,0v91.2l0,0
	c17.6,0.8,51.2,37.6,61.6,49.6c11.2,12.8,17.6,10.4,22.4,6.4c4-3.2,20.8-25.6,28-35.2c7.2-10.4,0.8-30.4,0-36.8
	C359.2,264,354.4,262.4,354.4,262.4z"/>
<path style="fill:#F9F9F9;" d="M360,270.4c-0.8-6.4-5.6-8-5.6-8l-10.4-4.8c-21.6-6.4-40.8-29.6-40.8-29.6
	c-30.4-31.2-50.4-34.4-54.4-33.6c-4.8,0-24.8,2.4-54.4,33.6c0,0-19.2,23.2-40.8,29.6l-10.4,4.8c0,0-4.8,1.6-5.6,8s-7.2,26.4,0,36.8
	c4.8,6.4,13.6,18.4,20,26.4c0.8,0.8,0.8,0.8,0.8,0.8c5.6,4.8,11.2,6.4,22.4-6.4c10.4-12,50.4-53.6,68.8-56c18.4,2.4,57.6,44,68.8,56
	c11.2,12.8,17.6,10.4,22.4,6.4l0.8-0.8c6.4-8,15.2-20,20-26.4C367.2,296.8,360.8,276.8,360,270.4z"/>
<path style="fill:#E7F2F2;" d="M354.4,262.4l-10.4-4.8c-21.6-6.4-40.8-29.6-40.8-29.6c-30.4-31.2-50.4-32.8-54.4-32.8l0,0V272l0,0
	c18.4,2.4,57.6,44,68.8,56c11.2,12.8,17.6,10.4,22.4,6.4l0.8-0.8c6.4-8,15.2-20,20-26.4c7.2-10.4,0.8-30.4,0-36.8
	C359.2,264,354.4,262.4,354.4,262.4z"/>
<path style="fill:#6B6B6B;" d="M384,280.8c0.8,1.6,2.4,4.8,4,4s1.6-4,0.8-5.6c-0.8-1.6-2.4-3.2-4-2.4
	C384,276.8,383.2,279.2,384,280.8z"/>
<path style="fill:#1C1C1B;" d="M384,280.8c0.8,1.6,2.4,3.2,4,2.4s2.4-2.4,1.6-4.8c-0.8-1.6-2.4-3.2-4-2.4
	C384,276.8,383.2,279.2,384,280.8z"/>
<path style="fill:#6B6B6B;" d="M379.2,273.6c0.8,1.6,1.6,3.2,2.4,2.4c0.8,0,1.6-2.4,0.8-4c-0.8-1.6-1.6-2.4-2.4-1.6
	S379.2,272.8,379.2,273.6z"/>
<ellipse transform="matrix(0.3329 0.943 -0.943 0.3329 511.7394 -176.9684)" style="fill:#1C1C1B;" cx="380.943" cy="273.189" rx="2.4" ry="1.6"/>
<path style="fill:#6D918C;" d="M380,423.2c-4,5.6-24,0.8-36.8-8.8c-12-9.6-12-21.6-8-26.4c4-5.6,17.6-1.6,29.6,8
	C377.6,405.6,384,417.6,380,423.2z"/>
<path style="fill:#50726C;" d="M335.2,388c-4,5.6-4,16.8,8,26.4s32,13.6,36.8,8.8"/>
<path style="fill:#3A544F;" d="M372,418.4c-3.2,3.2-16,0.8-24-5.6s-8-14.4-5.6-17.6c3.2-3.2,12-1.6,20,5.6
	C370.4,406.4,374.4,414.4,372,418.4z"/>
<path style="fill:#314C47;" d="M372,418.4c-3.2,3.2-16,0.8-24-5.6s-8-14.4-5.6-17.6"/>
<path style="fill:#F9F9F9;" d="M342.4,376.8c0,0,43.2-66.4,46.4-70.4c0,0-27.2,72-36.8,72c-8.8,0-15.2,4-15.2,4L342.4,376.8z"/>
</svg>