<?xml version="1.0" encoding="iso-8859-1"?>
<!-- Uploaded to: SVG Repo, www.svgrepo.com, Generator: SVG Repo Mixer Tools -->
<svg version="1.1" id="Layer_1" xmlns="http://www.w3.org/2000/svg" xmlns:xlink="http://www.w3.org/1999/xlink" 
	 viewBox="0 0 512 512" xml:space="preserve">
<rect x="170.489" y="238.898" style="fill:#7DBB34;" width="171.023" height="205.228"/>
<rect x="170.489" y="238.898" style="fill:#60A333;" width="17.102" height="205.228"/>
<rect x="264.551" y="238.898" style="fill:#A6DE64;" width="25.653" height="205.228"/>
<rect x="170.489" y="238.898" style="fill:#60A333;" width="171.023" height="42.756"/>
<rect x="136.284" y="196.142" style="fill:#7DBB34;" width="239.432" height="68.409"/>
<rect x="136.284" y="196.142" style="fill:#A6DE64;" width="239.432" height="68.409"/>
<rect x="136.284" y="196.142" style="fill:#60A333;" width="17.102" height="68.409"/>
<g>
	<rect x="153.386" y="196.142" style="fill:#7DBB34;" width="128.267" height="68.409"/>
	<rect x="307.307" y="196.142" style="fill:#7DBB34;" width="68.409" height="68.409"/>
</g>
<path style="fill:#F9D84E;" d="M281.653,8.017h-51.307v153.921h51.307c18.891,0,34.205-34.456,34.205-76.96
	S300.544,8.017,281.653,8.017z"/>
<path style="fill:#FFE88A;" d="M230.347,102.079H315c0.556-5.503,0.858-11.221,0.858-17.102s-0.302-11.6-0.858-17.102h-84.653
	V102.079z"/>
<ellipse style="fill:#FFC20D;" cx="230.347" cy="84.977" rx="34.205" ry="76.96"/>
<rect x="42.221" y="401.37" style="fill:#FD5E95;" width="85.511" height="51.307"/>
<polygon style="fill:#D14D7B;" points="59.324,435.574 59.324,401.37 42.221,401.37 42.221,452.676 127.733,452.676 
	127.733,435.574 "/>
<rect x="127.733" y="401.37" style="fill:#FD5E95;" width="85.511" height="51.307"/>
<polygon style="fill:#D14D7B;" points="144.835,435.574 144.835,401.37 127.733,401.37 127.733,452.676 213.244,452.676 
	213.244,435.574 "/>
<rect x="213.244" y="401.37" style="fill:#FD5E95;" width="85.511" height="51.307"/>
<polygon style="fill:#D14D7B;" points="230.347,435.574 230.347,401.37 213.244,401.37 213.244,452.676 298.756,452.676 
	298.756,435.574 "/>
<rect x="298.756" y="401.37" style="fill:#FD5E95;" width="85.511" height="51.307"/>
<polygon style="fill:#D14D7B;" points="315.858,435.574 315.858,401.37 298.756,401.37 298.756,452.676 384.267,452.676 
	384.267,435.574 "/>
<rect x="384.267" y="401.37" style="fill:#FD5E95;" width="85.511" height="51.307"/>
<polygon style="fill:#D14D7B;" points="401.37,435.574 401.37,401.37 384.267,401.37 384.267,452.676 469.779,452.676 
	469.779,435.574 "/>
<rect x="84.977" y="452.676" style="fill:#FD5E95;" width="85.511" height="51.307"/>
<polygon style="fill:#D14D7B;" points="102.079,486.881 102.079,452.676 84.977,452.676 84.977,503.983 170.489,503.983 
	170.489,486.881 "/>
<rect x="170.489" y="452.676" style="fill:#FD5E95;" width="85.511" height="51.307"/>
<polygon style="fill:#D14D7B;" points="187.591,486.881 187.591,452.676 170.489,452.676 170.489,503.983 256,503.983 256,486.881 
	"/>
<rect x="256" y="452.676" style="fill:#FD5E95;" width="85.511" height="51.307"/>
<polygon style="fill:#D14D7B;" points="273.102,486.881 273.102,452.676 256,452.676 256,503.983 341.511,503.983 341.511,486.881 
	"/>
<rect x="341.511" y="452.676" style="fill:#FD5E95;" width="85.511" height="51.307"/>
<polygon style="fill:#D14D7B;" points="358.614,486.881 358.614,452.676 341.511,452.676 341.511,503.983 427.023,503.983 
	427.023,486.881 "/>
<rect x="427.023" y="452.676" style="fill:#FD5E95;" width="68.409" height="51.307"/>
<polygon style="fill:#D14D7B;" points="444.125,486.881 444.125,452.676 427.023,452.676 427.023,503.983 495.432,503.983 
	495.432,486.881 "/>
<rect x="16.568" y="452.676" style="fill:#FD5E95;" width="68.409" height="51.307"/>
<polygon style="fill:#D14D7B;" points="33.67,486.881 33.67,452.676 16.568,452.676 16.568,503.983 84.977,503.983 84.977,486.881 
	"/>
<path d="M230.347,169.954h51.307c24.07,0,42.221-36.533,42.221-84.977S305.724,0,281.653,0h-51.307
	c-24.07,0-42.221,36.533-42.221,84.977S206.276,169.954,230.347,169.954z M307.841,84.977c0,42.715-15.253,68.944-26.188,68.944
	h-26.008c10.401-15.177,16.923-39.917,16.923-68.944s-6.521-53.766-16.923-68.944h26.008
	C292.588,16.033,307.841,42.262,307.841,84.977z M230.347,16.033c10.935,0,26.188,26.229,26.188,68.944
	s-15.253,68.944-26.188,68.944c-10.935,0-26.188-26.229-26.188-68.944S219.412,16.033,230.347,16.033z"/>
<path d="M222.33,118.647v9.086c0,4.428,3.589,8.017,8.017,8.017s8.017-3.588,8.017-8.017v-9.086h0.534
	c4.427,0,8.017-3.588,8.017-8.017V84.977c0-4.428-3.589-8.017-8.017-8.017h-9.086v-9.62h9.086c4.427,0,8.017-3.588,8.017-8.017
	s-3.589-8.017-8.017-8.017h-0.534v-9.086c0-4.428-3.589-8.017-8.017-8.017s-8.017,3.588-8.017,8.017v9.086h-0.534
	c-4.427,0-8.017,3.588-8.017,8.017v25.653c0,4.428,3.589,8.017,8.017,8.017h9.086v9.62h-9.086c-4.427,0-8.017,3.588-8.017,8.017
	c0,4.428,3.589,8.017,8.017,8.017H222.33z"/>
<path d="M495.432,444.66h-17.637v-43.29c0-4.428-3.588-8.017-8.017-8.017h-25.653c-4.428,0-8.017,3.588-8.017,8.017
	s3.588,8.017,8.017,8.017h17.637v35.273h-69.478v-35.273h17.637c4.428,0,8.017-3.588,8.017-8.017s-3.588-8.017-8.017-8.017h-60.392
	V272.568h26.188c4.428,0,8.017-3.588,8.017-8.017v-68.409c0-4.428-3.588-8.017-8.017-8.017H136.284
	c-4.427,0-8.017,3.588-8.017,8.017v68.409c0,4.428,3.589,8.017,8.017,8.017h26.188v26.184c0,4.428,3.589,8.017,8.017,8.017
	s8.017-3.588,8.017-8.017v-26.184h154.99v120.785h-34.739h-85.511h-34.739v-60.391c0-4.428-3.589-8.017-8.017-8.017
	s-8.017,3.588-8.017,8.017v60.391H42.221c-4.427,0-8.017,3.588-8.017,8.017v43.29H16.568c-4.427,0-8.017,3.588-8.017,8.017v51.307
	c0,4.428,3.589,8.017,8.017,8.017h478.864c4.428,0,8.017-3.588,8.017-8.017v-51.307C503.449,448.248,499.861,444.66,495.432,444.66z
	 M144.301,204.159h223.399v52.376H144.301V204.159z M376.251,409.386v35.273h-69.478v-35.273H376.251z M290.739,444.66h-69.478
	v-35.273h69.478V444.66z M205.228,409.386v35.273h-69.478v-35.273H205.228z M50.238,409.386h69.478v35.273H50.238V409.386z
	 M24.585,460.693H76.96v35.273H24.585V460.693z M92.994,460.693h69.478v35.273H92.994V460.693z M178.505,460.693h69.478v35.273
	h-69.478V460.693z M264.017,460.693h69.478v35.273h-69.478V460.693z M349.528,460.693h69.478v35.273h-69.478V460.693z
	 M487.415,495.967H435.04v-35.273h52.376V495.967z"/>
</svg>