<?xml version="1.0" standalone="no"?>
<!DOCTYPE svg PUBLIC "-//W3C//DTD SVG 20010904//EN"
 "http://www.w3.org/TR/2001/REC-SVG-20010904/DTD/svg10.dtd">
<svg version="1.0" xmlns="http://www.w3.org/2000/svg"
 width="329.000000pt" height="352.000000pt" viewBox="0 0 329.000000 352.000000"
 preserveAspectRatio="xMidYMid meet">

<g transform="translate(0.000000,352.000000) scale(0.100000,-0.100000)"
fill="#000000" stroke="none">
<path d="M923 2688 c-381 -381 -693 -697 -693 -703 0 -5 42 -51 92 -102 l93
-93 -93 -93 c-50 -51 -92 -97 -92 -102 0 -16 1384 -1395 1400 -1395 17 0 1390
1377 1390 1394 0 6 -40 52 -90 101 l-90 89 90 92 c50 50 90 98 90 105 0 16
-1379 1399 -1395 1399 -5 0 -321 -312 -702 -692z m1356 -1356 l-654 -651 -653
652 -652 652 652 652 653 653 654 -654 653 -653 -653 -651z"/>
<path d="M1137 2493 c-263 -263 -483 -486 -489 -497 -9 -16 53 -81 478 -507
269 -269 495 -489 503 -489 18 0 969 947 977 973 5 16 -91 117 -482 508 -269
269 -493 489 -499 489 -5 0 -225 -215 -488 -477z m736 -271 l237 -237 -243
-243 -242 -242 -240 240 -240 240 240 240 c132 132 242 240 245 240 3 0 112
-107 243 -238z"/>
<path d="M1542 2067 c-39 -40 -72 -79 -72 -88 0 -16 141 -159 157 -159 11 0
163 153 163 164 0 16 -143 156 -159 156 -9 0 -49 -33 -89 -73z"/>
</g>
</svg>
